<svg width="20" height="17" viewBox="0 0 20 17" fill="none" xmlns="http://www.w3.org/2000/svg">
<g opacity="0.8">
<path d="M19.1668 0.848391C18.3688 1.42255 17.4853 1.86168 16.5502 2.14889C16.0483 1.56028 15.3813 1.14308 14.6394 0.953728C13.8974 0.764377 13.1164 0.812007 12.4019 1.09018C11.6874 1.36835 11.0739 1.86363 10.6443 2.50905C10.2148 3.15447 9.98991 3.91888 10.0002 4.69889V5.54889C8.53569 5.58762 7.08456 5.25633 5.776 4.58452C4.46745 3.91271 3.34209 2.92123 2.50016 1.69839C2.50016 1.69839 -0.83317 9.34839 6.66683 12.7484C4.9506 13.9367 2.90613 14.5325 0.833496 14.4484C8.3335 18.6984 17.5002 14.4484 17.5002 4.67339C17.4994 4.43663 17.4771 4.20045 17.4335 3.96789C18.284 3.11236 18.8842 2.0322 19.1668 0.848391V0.848391Z" stroke="white" stroke-width="1.5" stroke-linecap="round" stroke-linejoin="round"/>
</g>
</svg>
