<svg width="20" height="15" viewBox="0 0 20 15" fill="none" xmlns="http://www.w3.org/2000/svg">
<g opacity="0.8">
<path d="M18.7835 2.8487C18.6845 2.45321 18.4829 2.09084 18.199 1.7982C17.9152 1.50557 17.5591 1.29302 17.1668 1.18203C15.7335 0.832031 10.0001 0.832031 10.0001 0.832031C10.0001 0.832031 4.26682 0.832031 2.83348 1.21536C2.44119 1.32635 2.08513 1.5389 1.80127 1.83154C1.51741 2.12417 1.31581 2.48654 1.21682 2.88203C0.954496 4.33666 0.826181 5.81229 0.833484 7.29036C0.824134 8.77957 0.952457 10.2664 1.21682 11.732C1.32595 12.1152 1.53207 12.4638 1.81527 12.7441C2.09847 13.0244 2.44917 13.2269 2.83348 13.332C4.26682 13.7154 10.0001 13.7154 10.0001 13.7154C10.0001 13.7154 15.7335 13.7154 17.1668 13.332C17.5591 13.221 17.9152 13.0085 18.199 12.7159C18.4829 12.4232 18.6845 12.0609 18.7835 11.6654C19.0438 10.2217 19.1721 8.75731 19.1668 7.29036C19.1762 5.80116 19.0478 4.31428 18.7835 2.8487V2.8487Z" stroke="white" stroke-width="1.5" stroke-linecap="round" stroke-linejoin="round"/>
<path d="M8.125 10.0164L12.9167 7.29141L8.125 4.56641V10.0164Z" stroke="white" stroke-width="1.5" stroke-linecap="round" stroke-linejoin="round"/>
</g>
</svg>
